<svg width="16" height="16" viewBox="0 0 16 16" fill="none" xmlns="http://www.w3.org/2000/svg">
<path d="M7.99443 13.2654C7.99443 13.2654 1.91992 9.86364 1.91992 5.73297C1.91992 5.00274 2.17292 4.29507 2.63588 3.73036C3.09883 3.16565 3.74314 2.77877 4.45919 2.63556C5.17523 2.49236 5.91878 2.60166 6.56332 2.94487C7.20786 3.28809 7.71358 3.84401 7.99443 4.51807C8.27529 3.84401 8.78101 3.28809 9.42555 2.94487C10.0701 2.60166 10.8136 2.49236 11.5297 2.63556C12.2457 2.77877 12.89 3.16565 13.353 3.73036C13.8159 4.29507 14.0689 5.00274 14.0689 5.73297C14.0689 9.86364 7.99443 13.2654 7.99443 13.2654Z" fill="white" stroke="#FF4B4B" stroke-linecap="round" stroke-linejoin="round"/>
</svg>
