<svg width="17" height="16" viewBox="0 0 17 16" fill="none" xmlns="http://www.w3.org/2000/svg">
<path fill-rule="evenodd" clip-rule="evenodd" d="M7.96145 1.94539C4.9275 1.94539 2.468 4.24092 2.468 7.07261C2.468 9.9043 4.9275 12.1998 7.96145 12.1998C10.9954 12.1998 13.4549 9.9043 13.4549 7.07261C13.4549 4.24092 10.9954 1.94539 7.96145 1.94539ZM0.898438 7.07261C0.898438 3.43187 4.06065 0.480469 7.96145 0.480469C11.8622 0.480469 15.0245 3.43187 15.0245 7.07261C15.0245 10.7134 11.8622 13.6648 7.96145 13.6648C4.06065 13.6648 0.898438 10.7134 0.898438 7.07261Z" fill="#666666"/>
<path fill-rule="evenodd" clip-rule="evenodd" d="M12.4164 11.057C12.706 10.7674 13.1755 10.7674 13.4651 11.057L16.6907 14.2827C16.9803 14.5722 16.9803 15.0417 16.6907 15.3313C16.4011 15.6209 15.9316 15.6209 15.642 15.3313L12.4164 12.1057C12.1268 11.8161 12.1268 11.3466 12.4164 11.057Z" fill="#666666"/>
</svg>
